<?xml version="1.0" standalone="no"?>
<!DOCTYPE svg PUBLIC "-//W3C//DTD SVG 20010904//EN"
 "http://www.w3.org/TR/2001/REC-SVG-20010904/DTD/svg10.dtd">
<svg version="1.0" xmlns="http://www.w3.org/2000/svg"
 width="96.000000pt" height="96.000000pt" viewBox="0 0 96.000000 96.000000"
 preserveAspectRatio="xMidYMid meet">

<g transform="translate(0.000000,96.000000) scale(0.100000,-0.100000)"
fill="#000000" stroke="none">
<path d="M445 935 c-31 -30 -31 -36 0 -73 17 -20 25 -42 25 -66 0 -33 -2 -36
-30 -36 -19 0 -33 -7 -40 -20 -8 -15 -21 -20 -53 -20 -107 0 -181 -58 -193
-150 -6 -49 -7 -50 -40 -50 -50 0 -64 -21 -64 -95 0 -55 3 -66 22 -79 12 -9
35 -16 50 -16 l28 0 0 -110 0 -110 330 0 330 0 0 30 c0 34 -19 41 -27 10 -5
-19 -14 -20 -304 -20 l-299 0 0 230 c0 247 4 271 52 304 28 20 38 20 38 1 0
-8 7 -15 15 -15 8 0 15 9 15 20 0 11 7 20 15 20 10 0 15 -11 15 -35 0 -24 5
-35 15 -35 10 0 15 11 15 35 0 24 5 35 15 35 8 0 15 -9 15 -20 0 -35 28 -77
60 -90 55 -23 120 26 120 90 0 11 7 20 15 20 10 0 15 -11 15 -35 0 -24 5 -35
15 -35 10 0 15 11 15 35 0 24 5 35 15 35 8 0 15 -9 15 -20 0 -11 7 -20 15 -20
8 0 15 7 15 15 0 19 10 19 38 -1 45 -32 52 -62 52 -241 1 -150 2 -166 15 -149
8 11 15 28 15 38 0 10 7 18 15 18 21 0 19 -53 -3 -80 -25 -30 -120 -41 -141
-16 -20 24 -87 21 -101 -4 -13 -25 3 -59 28 -61 34 -2 57 3 73 17 9 8 37 14
67 14 66 0 109 35 119 95 3 22 15 46 25 53 14 10 18 26 18 77 0 74 -14 95 -64
95 -33 0 -34 1 -40 50 -12 92 -86 150 -193 150 -32 0 -45 5 -53 20 -7 13 -21
20 -40 20 -28 0 -30 3 -30 36 0 24 8 46 25 66 14 16 25 34 25 39 0 13 -46 59
-60 59 -6 0 -22 -11 -35 -25z m60 -35 c0 -18 -6 -26 -23 -28 -24 -4 -38 18
-28 44 3 9 15 14 28 12 17 -2 23 -10 23 -28z m33 -214 c4 -56 -16 -86 -56 -86
-41 0 -62 27 -62 80 0 26 3 50 7 54 4 4 30 6 58 4 l50 -3 3 -49z m-388 -256
c0 -70 0 -70 -28 -70 -39 0 -52 17 -52 70 0 53 13 70 52 70 l28 0 0 -70z m728
58 c16 -16 16 -100 0 -116 -7 -7 -25 -12 -40 -12 -28 0 -28 0 -28 70 0 70 0
70 28 70 15 0 33 -5 40 -12z"/>
<path d="M297 508 c-9 -7 -19 -25 -22 -40 -10 -39 34 -83 73 -73 34 8 52 31
52 65 0 50 -62 78 -103 48z m76 -40 c7 -20 -12 -48 -31 -48 -39 0 -57 51 -25
69 19 10 48 -1 56 -21z"/>
<path d="M577 502 c-34 -38 -15 -95 35 -107 39 -10 83 34 73 73 -12 51 -75 71
-108 34z m83 -40 c0 -41 -51 -57 -70 -22 -15 28 22 65 50 50 11 -6 20 -19 20
-28z"/>
</g>
</svg>
