<?xml version="1.0" standalone="no"?>
<!DOCTYPE svg PUBLIC "-//W3C//DTD SVG 20010904//EN"
 "http://www.w3.org/TR/2001/REC-SVG-20010904/DTD/svg10.dtd">
<svg version="1.0" xmlns="http://www.w3.org/2000/svg"
 width="513.000000pt" height="474.000000pt" viewBox="0 0 513.000000 474.000000"
 preserveAspectRatio="xMidYMid meet">

<g transform="translate(0.000000,474.000000) scale(0.100000,-0.100000)"
fill="#000000" stroke="none">
<path d="M0 2370 l0 -2370 2560 0 2560 0 0 2370 0 2370 -2560 0 -2560 0 0
-2370z m2832 1875 c413 -54 774 -224 1068 -502 70 -65 113 -122 108 -142 -2
-6 20 -38 47 -71 96 -118 175 -236 232 -350 32 -63 68 -123 81 -134 46 -37
117 -238 154 -433 19 -99 22 -153 23 -333 0 -199 -2 -218 -21 -255 -15 -29
-29 -41 -50 -45 -20 -4 -30 -12 -34 -30 -4 -16 -13 -25 -25 -25 -19 0 -22 -8
-44 -100 -29 -126 -76 -264 -115 -340 -11 -22 -19 -43 -18 -47 1 -5 -3 -8 -8
-8 -6 0 -10 -9 -10 -20 0 -14 -5 -18 -17 -13 -11 4 -13 8 -5 11 7 2 10 8 6 13
-8 14 6 50 18 43 6 -4 8 -1 6 7 -3 8 1 30 9 49 38 92 83 225 108 323 24 93 27
114 18 155 -6 26 -8 100 -5 167 4 97 8 125 23 144 14 18 19 40 19 92 0 58 -3
69 -19 74 -31 9 -40 27 -57 111 -63 314 -199 606 -379 818 l-59 69 42 38 c23
22 47 39 54 39 25 -1 246 -313 299 -422 12 -26 26 -45 31 -42 10 7 -42 110
-107 209 -73 113 -204 275 -221 275 -8 0 -35 -19 -60 -42 l-45 -41 -64 63 -65
64 25 14 c23 11 29 11 52 -8 24 -19 27 -19 44 -4 10 9 33 19 51 23 l32 7 -94
82 c-52 45 -100 82 -107 82 -7 0 -52 26 -101 59 -48 32 -123 78 -167 101 -44
24 -96 58 -116 75 -63 56 -326 138 -549 170 -157 23 -493 19 -532 -7 -15 -10
-71 -27 -125 -39 -107 -23 -239 -62 -290 -86 -25 -12 -35 -25 -44 -57 -21 -79
-35 -94 -132 -142 -113 -57 -231 -137 -361 -245 -92 -76 -99 -80 -115 -64 -15
15 -12 21 49 77 125 116 263 214 425 300 110 58 105 63 -8 7 -167 -84 -420
-271 -485 -358 -14 -20 -53 -65 -85 -101 -141 -155 -287 -395 -363 -596 l-23
-61 21 -34 c19 -31 20 -39 8 -94 -66 -327 -73 -512 -29 -775 22 -130 56 -257
98 -363 33 -84 106 -233 122 -254 7 -7 10 -16 7 -19 -7 -6 -74 109 -122 209
-35 73 -56 104 -37 54 51 -134 268 -496 290 -483 4 3 6 -5 4 -18 -4 -18 6 -36
36 -69 23 -24 41 -49 41 -56 0 -6 6 -11 13 -11 7 0 29 -16 48 -36 18 -20 51
-47 72 -60 20 -14 50 -38 66 -54 15 -17 33 -30 39 -30 6 0 14 -4 17 -10 13
-21 -32 5 -72 42 -40 36 -63 47 -63 31 0 -5 28 -30 63 -58 34 -27 68 -56 75
-62 17 -16 29 -16 35 0 4 9 7 9 18 -1 12 -11 12 -13 0 -10 -7 2 -16 -3 -18 -9
-3 -7 1 -13 7 -13 17 0 61 -36 53 -44 -11 -11 -23 -6 -23 10 0 8 -5 12 -10 9
-6 -3 -10 -2 -10 2 0 5 -21 19 -47 32 -70 33 -124 72 -116 84 3 5 1 7 -4 4 -9
-6 -117 84 -178 149 -115 121 -237 286 -308 415 -99 183 -165 369 -209 592
-32 164 -32 489 0 662 68 363 237 708 473 961 32 35 59 68 59 73 0 5 39 41 86
81 57 48 83 77 80 87 -3 8 -1 24 6 36 7 12 11 29 10 39 -2 11 25 35 80 71 262
174 580 287 933 330 84 11 385 6 487 -8z m-1385 -57 c-3 -8 -6 -5 -6 6 -1 11
2 17 5 13 3 -3 4 -12 1 -19z m1100 -340 c-2 -24 -4 -5 -4 42 0 47 2 66 4 43 2
-24 2 -62 0 -85z m188 27 c-4 -42 -9 -74 -12 -71 -3 2 -2 39 2 81 4 42 10 74
12 71 3 -3 2 -39 -2 -81z m-366 -49 c2 -69 -8 -33 -13 49 -4 64 -3 71 4 35 5
-25 9 -63 9 -84z m552 27 c-9 -39 -21 -75 -25 -80 -5 -4 -7 -1 -4 7 3 9 11 42
18 75 7 33 14 64 17 68 12 20 10 -3 -6 -70z m-743 -15 c11 -43 17 -78 13 -78
-4 0 -13 26 -20 58 -7 31 -15 68 -18 82 -13 58 7 9 25 -62z m924 -38 c-14 -39
-27 -68 -30 -66 -6 6 41 136 49 136 3 0 -5 -32 -19 -70z m-1107 -11 c15 -38
25 -72 22 -75 -4 -4 -57 128 -57 142 0 17 12 -6 35 -67z m1281 -76 c-19 -37
-35 -62 -36 -56 0 18 64 146 68 134 2 -5 -13 -40 -32 -78z m-1450 -4 c19 -39
33 -73 31 -75 -4 -5 -77 129 -77 140 0 18 14 -2 46 -65z m1014 42 c141 -32
166 -40 242 -70 260 -104 529 -300 608 -442 8 -15 45 -69 81 -120 66 -92 138
-225 178 -327 12 -29 18 -52 15 -52 -4 0 -2 -6 4 -13 13 -15 47 -145 57 -216
5 -40 4 -56 -6 -62 -11 -7 -10 -9 4 -9 12 0 17 -8 17 -30 0 -17 7 -44 15 -61
11 -20 15 -54 14 -104 l-2 -74 -36 -9 -36 -10 32 -1 c36 -1 44 -18 32 -66 -5
-16 -10 -50 -13 -73 -2 -24 -7 -46 -9 -49 -3 -2 -39 3 -80 12 -75 17 -76 17
-82 53 -8 50 -2 202 8 209 4 3 4 10 -2 16 -5 7 -18 57 -29 112 -11 55 -23 108
-27 117 -5 13 -1 20 16 27 22 9 22 10 -9 10 -22 1 -31 5 -26 12 6 10 -3 34
-57 157 -10 23 -19 46 -19 51 0 4 18 16 40 26 22 10 38 20 36 22 -2 3 -18 -3
-35 -11 -16 -9 -36 -16 -43 -16 -7 0 -35 35 -63 78 -169 261 -328 414 -542
522 -385 193 -826 182 -1197 -31 -86 -49 -222 -155 -277 -215 -44 -49 -160
-205 -172 -233 -6 -14 -21 -42 -32 -61 -32 -52 -90 -215 -108 -300 -22 -104
-31 -153 -28 -164 1 -6 -1 -32 -4 -58 l-7 -48 -71 0 c-40 0 -77 4 -83 8 -13 8
-24 122 -12 122 4 0 8 17 10 37 3 33 7 39 33 43 28 5 28 6 7 12 -20 5 -22 12
-20 57 1 28 6 51 11 51 23 0 -2 36 -28 41 l-30 7 27 1 c26 1 28 4 25 39 -1 20
-6 40 -12 44 -6 5 -5 8 3 8 6 0 12 9 12 20 0 11 -5 20 -10 20 -7 0 -7 6 -1 19
6 10 7 21 3 25 -3 4 2 4 12 0 10 -4 14 -10 9 -13 -12 -9 -14 -31 -3 -31 5 0
10 5 10 11 0 5 5 7 10 4 6 -4 8 -10 5 -15 -3 -4 5 -7 18 -7 12 1 33 -2 47 -6
14 -4 6 2 -17 13 -24 12 -47 29 -53 40 -12 23 5 113 25 134 8 7 12 16 9 18 -2
3 10 27 28 54 18 27 48 73 66 102 18 29 52 73 77 97 24 25 42 45 39 45 -9 0
107 111 170 162 32 26 62 48 66 48 4 0 36 -38 70 -85 35 -46 65 -83 67 -81 2
2 -25 44 -60 92 -63 88 -63 89 -43 105 85 65 312 169 446 204 83 21 216 45
255 45 17 0 46 9 65 20 31 18 47 20 155 15 66 -2 158 -13 205 -24z m601 -120
c-41 -59 -71 -88 -35 -33 55 86 67 102 71 98 3 -2 -14 -32 -36 -65z m-1780
-12 c22 -33 39 -63 36 -65 -4 -4 -16 12 -71 99 -36 54 -6 25 35 -34z m1973
-41 c-17 -28 -88 -108 -92 -104 -2 3 17 30 43 61 45 52 65 70 49 43z m-2121
-78 c26 -32 47 -62 47 -67 -1 -4 -12 6 -26 22 -64 76 -85 105 -77 104 4 0 29
-26 56 -59z m1055 -58 c3 -16 10 -22 30 -23 17 -1 21 -3 10 -6 -33 -8 -18 -23
25 -24 42 -2 42 -2 -13 -10 -58 -9 -105 -14 -205 -22 -33 -3 -51 -3 -39 -1 16
4 20 11 16 34 -4 30 -4 30 49 32 30 0 62 0 72 0 10 -1 17 4 16 11 -3 28 2 38
19 35 9 -2 18 -13 20 -26z m1172 -37 c-30 -30 -59 -55 -64 -55 -6 0 14 25 44
55 30 30 59 55 64 55 6 0 -14 -25 -44 -55z m-953 25 c2 -8 -1 -22 -7 -30 -8
-13 -11 -13 -26 2 -10 9 -14 24 -10 33 7 20 40 16 43 -5z m-480 -7 c4 -10 11
-21 17 -25 6 -4 0 -8 -14 -8 -44 -1 -51 -11 -37 -57 7 -22 14 -42 17 -43 3 -2
37 3 75 9 149 27 305 21 462 -16 68 -15 74 -15 91 0 26 24 38 22 131 -23 159
-77 305 -198 417 -345 65 -86 150 -264 181 -380 24 -90 27 -117 27 -275 0
-157 -3 -185 -26 -272 -57 -210 -144 -365 -288 -509 -198 -200 -448 -318 -708
-336 -86 -6 -91 -7 -77 -23 35 -39 10 -53 -80 -45 -91 9 -98 12 -91 46 4 24 2
29 -13 29 -12 0 -21 -10 -25 -26 -6 -23 -10 -25 -47 -21 -22 2 -43 8 -47 12
-4 4 8 5 26 2 30 -6 33 -5 30 16 -2 17 -11 23 -35 25 -26 3 -32 -1 -36 -20 -3
-18 -5 -16 -6 8 -1 34 -28 54 -43 32 -6 -10 -8 -9 -8 3 0 18 -26 33 -41 23 -5
-3 -9 -1 -9 4 0 15 -43 23 -52 9 -5 -8 -8 -7 -8 4 0 14 -26 34 -39 29 -2 -1
-7 3 -10 8 -3 6 -15 12 -26 14 -11 1 -27 12 -36 23 -14 16 -19 17 -32 7 -13
-11 -15 -10 -10 6 5 21 -20 37 -40 25 -7 -3 -9 -2 -4 2 4 5 0 17 -10 27 -16
18 -17 18 -42 -4 l-26 -23 19 23 19 22 -61 62 -62 61 -22 -19 -23 -19 19 22
c18 22 18 23 -10 62 -16 23 -34 39 -41 36 -7 -2 -10 2 -7 8 2 7 -4 22 -14 32
-10 11 -19 25 -20 30 -1 6 -9 18 -17 28 -8 9 -12 17 -10 17 3 0 1 9 -5 21 -7
13 -17 18 -27 15 -13 -5 -14 -4 -3 9 7 8 8 15 2 15 -5 0 -9 8 -8 18 0 9 -5 16
-12 14 -8 -1 -11 2 -7 8 8 14 -15 82 -34 98 -8 6 -10 12 -4 12 7 0 5 19 -5 55
-10 37 -20 55 -31 55 -13 0 -13 2 -3 9 10 6 12 20 8 47 -3 22 -5 56 -6 77 0
35 -2 37 -32 38 -31 2 -31 2 -5 6 26 4 27 7 27 58 0 53 0 54 -32 58 l-33 4 36
1 c32 2 37 5 37 27 0 20 -6 25 -27 26 l-26 2 28 4 c15 2 27 10 28 16 0 7 2 31
5 54 5 38 3 42 -18 46 -17 3 -16 4 5 2 16 -1 27 4 27 11 0 7 3 19 6 27 3 10
-2 17 -13 20 -14 4 -14 5 5 6 16 1 22 7 22 25 0 13 -6 27 -12 30 -7 3 -5 4 6
3 11 -1 22 7 27 20 6 18 3 23 -22 32 -16 5 -29 12 -29 15 0 3 12 1 27 -5 28
-10 47 4 38 29 -2 6 1 12 8 12 10 0 29 32 55 92 2 4 -9 14 -25 22 -33 18 -25
21 12 4 22 -10 28 -9 36 3 13 21 11 25 -17 38 -15 6 -24 14 -21 17 3 3 17 -2
30 -11 24 -16 26 -15 37 6 11 19 9 25 -11 40 -13 10 -19 19 -13 19 6 0 17 -7
24 -15 16 -19 30 -19 30 -1 0 8 6 16 13 19 8 3 3 11 -13 25 -14 12 -21 21 -16
22 5 0 18 -7 28 -17 26 -23 35 -8 12 19 -19 23 -19 23 1 6 20 -16 22 -15 68
31 29 29 44 52 38 55 -6 4 -16 17 -22 29 -12 22 -12 22 13 -1 15 -14 31 -20
41 -16 21 8 21 18 2 34 -8 7 -15 18 -15 24 0 6 9 0 19 -14 16 -20 22 -22 35
-11 8 7 21 9 27 5 14 -8 4 11 -19 39 -8 9 -13 20 -10 23 3 3 16 -11 28 -30 17
-28 28 -36 51 -36 16 0 29 3 29 6 0 3 -14 26 -31 50 -17 25 -29 47 -27 50 3 2
20 -19 38 -48 18 -29 35 -47 37 -40 3 6 9 10 14 6 12 -7 11 12 -2 39 -10 21
-10 21 8 -1 12 -15 25 -21 36 -16 22 8 21 16 -4 66 -29 58 -35 97 -14 104 22
9 38 -10 30 -34 -4 -14 -11 -19 -21 -15 -12 4 -9 -7 10 -46 27 -53 32 -56 55
-42 11 7 9 17 -8 56 -28 64 -21 69 8 6 18 -38 27 -47 42 -44 15 4 18 11 13 27
-6 20 -5 20 8 3 14 -18 48 -15 48 5 0 5 4 7 9 4 5 -4 18 -3 29 1 19 8 20 9 2
65 -15 49 -15 56 -2 50 10 -3 13 -1 8 7 -11 17 0 41 19 41 9 0 19 -8 22 -17z
m-898 -87 c14 -14 20 -26 15 -26 -5 0 -34 26 -64 57 -48 49 -50 53 -15 26 22
-17 51 -43 64 -57z m964 58 c-3 -9 -9 -12 -12 -7 -3 4 -10 11 -15 16 -5 4 0 7
12 7 15 0 20 -4 15 -16z m340 9 c-7 -2 -19 -2 -25 0 -7 3 -2 5 12 5 14 0 19
-2 13 -5z m291 -29 c8 -21 -11 -45 -30 -37 -14 5 -19 34 -7 46 12 12 31 7 37
-9z m-795 -44 c0 -9 -4 -8 -9 5 -5 11 -9 27 -9 35 0 9 4 8 9 -5 5 -11 9 -27 9
-35z m-55 -20 l7 -25 -15 25 c-9 14 -15 32 -15 40 0 13 1 13 8 0 5 -8 12 -26
15 -40z m1766 -4 c0 -9 -121 -98 -126 -93 -3 2 23 25 57 51 63 46 69 50 69 42z
m-860 -26 c8 -5 11 -10 5 -10 -5 0 -17 5 -25 10 -8 5 -10 10 -5 10 6 0 17 -5
25 -10z m-1071 -30 c11 -24 11 -24 -3 -6 -9 11 -16 24 -16 30 0 12 5 7 19 -24z
m-733 -27 c35 -26 62 -48 60 -51 -3 -2 -31 15 -63 39 -69 50 -80 59 -69 59 5
0 37 -21 72 -47z m2783 -87 c-12 -12 -131 -77 -134 -74 -5 5 116 78 129 78 5
0 7 -2 5 -4z m-728 -23 c13 -16 12 -17 -3 -4 -17 13 -22 21 -14 21 2 0 10 -8
17 -17z m79 -38 c30 -30 52 -55 49 -55 -2 0 -29 25 -59 55 -30 30 -52 55 -49
55 2 0 29 -25 59 -55z m-2235 -12 c35 -20 63 -39 61 -40 -4 -4 -136 67 -136
73 0 8 13 3 75 -33z m530 17 c4 -6 -13 -34 -38 -63 -164 -193 -258 -425 -276
-676 -17 -247 24 -452 130 -647 37 -67 38 -72 21 -87 -16 -14 -41 -21 -68 -18
-30 3 -138 267 -165 400 -11 59 -11 62 15 99 25 37 26 46 30 188 4 163 19 248
67 383 17 47 31 94 32 103 1 9 5 14 9 12 7 -5 12 19 9 39 -1 5 3 6 9 2 5 -3
10 -2 10 3 0 15 99 163 147 220 45 53 57 60 68 42z m70 -10 c10 -11 16 -20 13
-20 -3 0 -13 9 -23 20 -10 11 -16 20 -13 20 3 0 13 -9 23 -20z m-39 -41 c19
-22 19 -22 -3 -10 -13 6 -23 16 -23 21 0 15 5 12 26 -11z m1719 -39 c10 -11
16 -20 13 -20 -3 0 -13 9 -23 20 -10 11 -16 20 -13 20 3 0 13 -9 23 -20z m695
-25 c0 -9 -132 -66 -142 -63 -7 3 102 55 140 67 1 1 2 -1 2 -4z m-649 -32 c13
-16 12 -17 -3 -4 -17 13 -22 21 -14 21 2 0 10 -8 17 -17z m-2411 -39 c33 -15
59 -29 57 -31 -2 -2 -35 10 -73 26 -38 17 -64 30 -57 31 6 0 39 -12 73 -26z
m480 -118 c0 -2 -9 -2 -20 1 -11 3 -20 9 -20 15 0 5 9 4 20 -2 11 -6 20 -12
20 -14z m2635 -6 c-11 -5 -27 -9 -35 -9 -9 0 -8 4 5 9 11 5 27 9 35 9 9 0 8
-4 -5 -9z m-85 -25 c-46 -18 -64 -17 -25 0 17 8 37 14 45 14 8 0 -1 -7 -20
-14z m-3035 -54 c-6 -6 -134 30 -140 39 -2 4 29 -2 70 -14 40 -11 72 -22 70
-25z m440 39 c3 -5 2 -10 -4 -10 -5 0 -13 5 -16 10 -3 6 -2 10 4 10 5 0 13 -4
16 -10z m-340 -130 c8 -13 -35 -13 -55 0 -11 7 -7 10 17 10 17 0 35 -4 38 -10z
m3070 -20 c-11 -5 -31 -8 -45 -8 -23 0 -22 1 5 8 42 11 65 11 40 0z m-82 -17
c-7 -2 -19 -2 -25 0 -7 3 -2 5 12 5 14 0 19 -2 13 -5z m-3158 -44 c29 -6 23
-7 -25 -2 -36 3 -72 9 -80 14 -15 8 31 3 105 -12z m112 -95 c-3 -3 -12 -4 -19
-1 -8 3 -5 6 6 6 11 1 17 -2 13 -5z m3101 -51 c-15 -2 -42 -2 -60 0 -18 2 -6
4 27 4 33 0 48 -2 33 -4z m-3300 -40 c-10 -2 -28 -2 -40 0 -13 2 -5 4 17 4 22
1 32 -1 23 -4z m90 -10 c-10 -2 -28 -2 -40 0 -13 2 -5 4 17 4 22 1 32 -1 23
-4z m2709 -75 c-2 -13 -4 -3 -4 22 0 25 2 35 4 23 2 -13 2 -33 0 -45z m440
-54 c-3 -3 -12 -4 -19 -1 -8 3 -5 6 6 6 11 1 17 -2 13 -5z m116 -11 c-13 -2
-33 -2 -45 0 -13 2 -3 4 22 4 25 0 35 -2 23 -4z m-3300 -50 c-13 -2 -33 -2
-45 0 -13 2 -3 4 22 4 25 0 35 -2 23 -4z m470 0 c-7 -2 -21 -2 -30 0 -10 3 -4
5 12 5 17 0 24 -2 18 -5z m-16 -59 c-3 -3 -12 -4 -19 -1 -8 3 -5 6 6 6 11 1
17 -2 13 -5z m2750 -80 c-3 -3 -12 -4 -19 -1 -8 3 -5 6 6 6 11 1 17 -2 13 -5z
m60 -10 c-3 -3 -12 -4 -19 -1 -8 3 -5 6 6 6 11 1 17 -2 13 -5z m-2760 -20 c-3
-3 -12 -4 -19 -1 -8 3 -5 6 6 6 11 1 17 -2 13 -5z m2536 -10 c18 -6 22 -31 9
-50 -5 -8 -23 -8 -64 -1 -44 9 -59 16 -67 34 -6 13 -11 27 -11 30 0 7 109 -3
133 -13z m-2996 0 c-3 -3 -12 -4 -19 -1 -8 3 -5 6 6 6 11 1 17 -2 13 -5z m-54
-11 c-7 -2 -19 -2 -25 0 -7 3 -2 5 12 5 14 0 19 -2 13 -5z m-46 -9 c-3 -3 -12
-4 -19 -1 -8 3 -5 6 6 6 11 1 17 -2 13 -5z m3056 -49 c26 -3 47 -11 47 -16 0
-6 -4 -7 -10 -4 -6 4 -11 -11 -12 -37 -2 -67 -5 -91 -16 -123 -7 -19 -11 -23
-11 -11 -1 15 -6 17 -32 12 -38 -7 -99 19 -99 43 0 33 27 104 43 112 9 6 14
16 10 25 -5 12 -1 15 13 11 10 -3 40 -8 67 -12z m140 -62 c-7 -2 -19 -2 -25 0
-7 3 -2 5 12 5 14 0 19 -2 13 -5z m-190 -150 c4 -7 17 -13 27 -13 11 0 20 -7
20 -15 0 -10 -10 -15 -27 -15 -16 0 -23 -4 -17 -8 16 -11 13 -82 -4 -82 -8 0
-12 6 -9 13 3 8 1 20 -4 28 -6 10 -9 6 -10 -16 -1 -16 0 -36 1 -44 2 -20 -19
-31 -63 -31 -24 0 -40 -5 -43 -15 -8 -19 -24 -19 -24 0 0 10 -16 16 -50 21
-44 6 -59 16 -29 20 5 1 13 2 18 3 5 0 12 10 16 20 3 11 14 23 25 26 10 3 21
13 24 21 3 8 2 12 -4 9 -6 -3 -10 3 -10 14 0 16 -8 21 -37 24 l-38 4 43 1 c23
1 42 7 42 13 0 12 69 8 105 -5 12 -5 15 -4 8 1 -18 13 -5 53 15 46 10 -4 21
-12 25 -20z m37 18 c0 -5 -7 -11 -15 -15 -9 -3 -15 0 -15 9 0 8 7 15 15 15 8
0 15 -4 15 -9z m-100 -5 c0 -3 -4 -8 -10 -11 -5 -3 -10 -1 -10 4 0 6 5 11 10
11 6 0 10 -2 10 -4z m228 -51 c24 -10 41 -19 39 -21 -5 -5 -94 30 -104 40 -9
10 -1 8 65 -19z m-411 -91 c-3 -3 -12 -4 -19 -1 -8 3 -5 6 6 6 11 1 17 -2 13
-5z m333 -90 c0 -2 -16 4 -35 13 -19 9 -35 20 -35 25 0 4 16 -2 35 -13 19 -12
35 -23 35 -25z m50 -30 c0 -2 -9 0 -20 6 -11 6 -20 13 -20 16 0 2 9 0 20 -6
11 -6 20 -13 20 -16z m109 -136 c-23 -46 -32 -55 -49 -51 -11 3 -17 10 -14 15
3 5 13 7 21 4 11 -5 13 -2 9 9 -3 9 6 39 21 68 22 44 27 49 33 32 5 -13 -2
-39 -21 -77z m-279 15 c0 -7 -39 17 -46 28 -3 6 5 3 20 -6 14 -10 26 -19 26
-22z m-2890 -44 c15 -28 5 -23 -15 7 -9 15 -12 23 -6 20 6 -4 16 -16 21 -27z
m260 -33 c0 -2 -8 -10 -17 -17 -16 -13 -17 -12 -4 4 13 16 21 21 21 13z m2870
-2 c0 -12 -131 -199 -170 -244 -29 -33 -42 -42 -51 -33 -14 14 -1 39 65 121
27 34 54 59 60 55 6 -3 8 -3 4 2 -12 13 32 67 50 60 12 -4 13 -3 3 9 -7 8 -10
20 -6 26 7 11 45 14 45 4z m-266 -319 c17 -13 15 -35 -4 -35 -14 0 -41 31 -35
41 8 12 17 11 39 -6z m-63 -48 c-10 -9 -11 -8 -5 6 3 10 9 15 12 12 3 -3 0
-11 -7 -18z m-26 -59 c4 -4 -4 -10 -18 -13 -14 -4 -28 -13 -31 -21 -9 -23 -36
-17 -36 9 0 18 2 19 10 7 8 -13 11 -12 16 5 5 21 44 29 59 13z m-140 -106 c-5
-4 -10 -23 -10 -42 0 -19 5 -38 10 -42 6 -5 5 -8 -3 -8 -7 0 -10 -4 -7 -10 3
-5 1 -10 -5 -10 -6 0 -9 -4 -6 -8 12 -20 -308 -193 -379 -204 -11 -2 -26 -9
-33 -15 -21 -20 -121 -17 -129 3 -10 28 26 82 63 94 19 7 34 16 34 21 0 5 11
7 25 5 16 -3 34 3 53 18 15 13 42 27 61 31 18 4 41 15 51 25 9 9 29 20 43 24
15 3 26 10 26 14 -4 24 3 33 20 27 19 -6 86 27 75 37 -3 3 9 10 25 16 17 6 31
16 31 21 0 6 15 11 33 11 17 0 28 -4 22 -8z m-2018 -114 c35 -18 63 -40 63
-48 -1 -12 -3 -12 -14 2 -7 10 -16 15 -19 12 -3 -3 -12 -1 -19 5 -48 41 -61
50 -69 46 -4 -3 -10 -1 -14 5 -11 17 8 12 72 -22z m233 -84 c0 -2 -9 0 -20 6
-11 6 -20 13 -20 16 0 2 9 0 20 -6 11 -6 20 -13 20 -16z m-30 -14 c12 -8 9
-10 -13 -10 -16 0 -26 4 -22 10 8 12 16 12 35 0z m557 -190 c2 -13 8 -27 14
-31 8 -4 7 -9 -1 -14 -7 -4 -15 -3 -19 2 -3 6 -14 9 -24 7 -21 -3 -39 28 -31
51 10 26 56 15 61 -15z m648 20 c-3 -5 -13 -10 -21 -10 -8 0 -14 5 -14 10 0 6
9 10 21 10 11 0 17 -4 14 -10z"/>
<path d="M1748 4044 c-16 -8 -28 -21 -28 -29 0 -13 5 -13 33 -2 17 7 33 21 35
30 4 21 -5 21 -40 1z"/>
<path d="M3960 3459 c0 -6 22 -41 49 -78 187 -253 282 -476 347 -808 3 -15 12
-23 24 -23 27 0 26 28 -4 160 -54 238 -184 511 -334 703 -41 52 -82 75 -82 46z"/>
<path d="M4358 2968 c-16 -5 -28 -14 -28 -20 0 -11 49 -2 63 12 14 13 -6 18
-35 8z"/>
<path d="M4368 2913 c-16 -4 -27 -33 -13 -33 10 0 65 30 65 35 0 6 -27 5 -52
-2z"/>
<path d="M4381 2859 c-16 -6 -21 -13 -14 -20 12 -12 63 5 63 21 0 12 -17 12
-49 -1z"/>
<path d="M4411 2811 c-26 -7 -41 -31 -19 -31 30 0 58 13 58 26 0 15 -3 15 -39
5z"/>
<path d="M712 2763 c2 -10 10 -18 18 -18 8 0 16 8 18 18 2 12 -3 17 -18 17
-15 0 -20 -5 -18 -17z"/>
<path d="M4411 2749 c-18 -7 -21 -13 -14 -20 13 -13 69 2 66 17 -3 13 -24 14
-52 3z"/>
<path d="M690 2687 c0 -19 10 -27 26 -20 21 8 17 33 -6 33 -11 0 -20 -6 -20
-13z"/>
<path d="M4415 2689 c-4 -6 -5 -13 -2 -16 8 -8 67 7 67 18 0 13 -57 11 -65 -2z"/>
<path d="M4442 2641 c-26 -7 -31 -26 -7 -25 48 2 56 5 53 16 -5 15 -17 18 -46
9z"/>
<path d="M680 2620 c-13 -8 -13 -11 2 -26 16 -17 18 -17 24 0 9 23 -7 38 -26
26z"/>
<path d="M4437 2583 c-16 -15 -5 -24 25 -21 41 4 50 28 11 28 -17 0 -33 -3
-36 -7z"/>
<path d="M670 2535 c-10 -12 -9 -16 5 -21 23 -9 40 10 22 25 -11 9 -17 8 -27
-4z"/>
<path d="M4435 2521 c-3 -5 -1 -12 4 -15 13 -8 71 5 71 15 0 12 -67 11 -75 0z"/>
<path d="M4447 2473 c-15 -15 -5 -23 28 -23 24 0 35 5 35 15 0 15 -50 22 -63
8z"/>
<path d="M4450 2411 c0 -16 19 -23 40 -16 30 10 24 25 -10 25 -16 0 -30 -4
-30 -9z"/>
<path d="M4450 2350 c0 -5 16 -10 35 -10 19 0 35 5 35 10 0 6 -16 10 -35 10
-19 0 -35 -4 -35 -10z"/>
<path d="M4450 2290 c0 -5 16 -10 35 -10 19 0 35 5 35 10 0 6 -16 10 -35 10
-19 0 -35 -4 -35 -10z"/>
<path d="M4452 2238 c7 -20 68 -23 68 -4 0 12 -10 16 -36 16 -24 0 -34 -4 -32
-12z"/>
<path d="M4450 2180 c0 -5 16 -10 35 -10 19 0 35 5 35 10 0 6 -16 10 -35 10
-19 0 -35 -4 -35 -10z"/>
<path d="M2543 3665 c0 -44 2 -61 4 -37 2 23 2 59 0 80 -2 20 -4 1 -4 -43z"/>
<path d="M2812 3685 c0 -16 2 -22 5 -12 2 9 2 23 0 30 -3 6 -5 -1 -5 -18z"/>
<path d="M2210 3693 c0 -5 7 -28 15 -53 l15 -45 -5 40 c-2 22 -5 46 -5 53 0 6
-4 12 -10 12 -5 0 -10 -3 -10 -7z"/>
<path d="M2801 3634 c0 -11 3 -14 6 -6 3 7 2 16 -1 19 -3 4 -6 -2 -5 -13z"/>
<path d="M3071 3624 c0 -11 3 -14 6 -6 3 7 2 16 -1 19 -3 4 -6 -2 -5 -13z"/>
<path d="M1941 3530 c18 -32 35 -58 36 -56 7 6 -49 116 -58 116 -6 0 4 -27 22
-60z"/>
<path d="M2241 3574 c0 -11 3 -14 6 -6 3 7 2 16 -1 19 -3 4 -6 -2 -5 -13z"/>
<path d="M2791 3574 c0 -11 3 -14 6 -6 3 7 2 16 -1 19 -3 4 -6 -2 -5 -13z"/>
<path d="M2541 3534 c0 -11 3 -14 6 -6 3 7 2 16 -1 19 -3 4 -6 -2 -5 -13z"/>
<path d="M2251 3524 c0 -11 3 -14 6 -6 3 7 2 16 -1 19 -3 4 -6 -2 -5 -13z"/>
<path d="M2781 3524 c0 -11 3 -14 6 -6 3 7 2 16 -1 19 -3 4 -6 -2 -5 -13z"/>
<path d="M3026 3505 c-9 -26 -7 -32 5 -12 6 10 9 21 6 23 -2 3 -7 -2 -11 -11z"/>
<path d="M3302 3469 c-12 -21 -21 -39 -18 -39 7 0 49 71 44 75 -2 2 -14 -14
-26 -36z"/>
<path d="M3505 3268 l-60 -63 63 60 c34 33 62 61 62 62 0 8 -10 -1 -65 -59z"/>
<path d="M1472 3258 c2 -6 38 -41 79 -77 l74 -65 -75 77 c-76 79 -85 86 -78
65z"/>
<path d="M3739 3083 c-13 -17 -13 -17 6 -3 11 8 22 16 24 17 2 2 0 3 -6 3 -6
0 -17 -8 -24 -17z"/>
<path d="M3655 3024 l-30 -26 33 22 c17 12 32 23 32 26 0 7 -4 5 -35 -22z"/>
<path d="M1270 3004 c0 -11 26 -29 58 -41 43 -15 40 -9 -8 22 -41 26 -50 29
-50 19z"/>
<path d="M3600 2990 c-9 -6 -10 -10 -3 -10 6 0 15 5 18 10 8 12 4 12 -15 0z"/>
<path d="M1226 2907 c3 -10 9 -15 12 -12 3 3 0 11 -7 18 -10 9 -11 8 -5 -6z"/>
<path d="M3865 2815 c-27 -13 -47 -24 -43 -24 10 -1 98 38 98 44 0 7 3 8 -55
-20z"/>
<path d="M3978 2543 c7 -3 16 -2 19 1 4 3 -2 6 -13 5 -11 0 -14 -3 -6 -6z"/>
<path d="M3928 2533 c6 -2 18 -2 25 0 6 3 1 5 -13 5 -14 0 -19 -2 -12 -5z"/>
<path d="M3878 2523 c6 -2 18 -2 25 0 6 3 1 5 -13 5 -14 0 -19 -2 -12 -5z"/>
<path d="M1238 2453 c6 -2 18 -2 25 0 6 3 1 5 -13 5 -14 0 -19 -2 -12 -5z"/>
<path d="M3913 2243 c9 -2 25 -2 35 0 9 3 1 5 -18 5 -19 0 -27 -2 -17 -5z"/>
<path d="M3938 2153 c7 -3 16 -2 19 1 4 3 -2 6 -13 5 -11 0 -14 -3 -6 -6z"/>
<path d="M2535 3400 c-11 -17 5 -32 21 -19 7 6 11 15 8 20 -7 12 -21 11 -29
-1z"/>
<path d="M2370 3245 c-217 -46 -367 -130 -528 -291 -71 -71 -111 -104 -126
-104 -13 0 -30 -8 -38 -17 -14 -16 -50 -78 -53 -93 -1 -3 -10 -23 -20 -45 -9
-22 -18 -44 -19 -50 -1 -5 -8 -28 -15 -49 -12 -35 -12 -41 2 -51 15 -11 15
-19 3 -78 -16 -74 -22 -87 -41 -87 -18 0 -25 -23 -25 -89 0 -49 4 -61 25 -79
20 -17 25 -31 25 -66 0 -111 76 -320 168 -462 37 -57 142 -171 207 -224 72
-60 212 -136 301 -165 27 -9 56 -19 64 -22 8 -4 18 -7 23 -7 4 -1 16 -15 26
-32 24 -39 41 -42 211 -43 159 0 261 17 376 63 142 56 228 113 339 221 153
150 248 299 300 470 52 172 58 402 11 448 -14 14 -31 54 -44 105 -92 355 -352
622 -707 728 -77 22 -113 27 -245 30 -108 2 -175 -1 -220 -11z m-592 -941 c3
-97 -3 -106 -89 -112 -55 -4 -59 -3 -59 17 0 17 6 21 30 21 l30 0 0 73 c0 41
3 77 7 81 4 4 23 6 43 4 l35 -3 3 -81z m315 74 c9 -7 41 -51 71 -98 l53 -85
-41 -3 c-32 -3 -44 1 -55 17 -11 18 -24 21 -76 21 -52 0 -65 -3 -76 -21 -11
-16 -23 -20 -56 -17 l-43 3 59 91 c32 51 65 94 72 97 26 10 75 7 92 -5z m493
-12 c32 -44 2 -96 -56 -96 -24 -1 -22 -3 20 -40 l45 -39 -47 -1 c-39 0 -54 6
-97 40 l-51 40 0 -40 0 -40 -40 0 -40 0 0 101 0 101 126 -3 c110 -4 127 -6
140 -23z m180 -47 l45 -71 43 68 c41 66 45 69 84 72 23 2 42 0 42 -5 -1 -4
-29 -48 -63 -98 -64 -93 -80 -104 -133 -91 -16 4 -44 37 -84 96 -33 49 -60 92
-60 95 0 3 18 5 40 5 39 0 42 -2 86 -71z m344 -29 l0 -100 -40 0 -40 0 0 100
0 100 40 0 40 0 0 -100z m368 78 c3 -15 -8 -18 -80 -20 -66 -2 -83 -6 -83 -18
0 -11 16 -16 66 -20 78 -6 101 -21 97 -64 -4 -45 -35 -56 -155 -56 -96 0 -103
1 -103 20 0 17 8 19 82 22 70 3 83 6 86 21 3 15 -5 17 -60 17 -76 0 -108 18
-108 59 0 51 25 60 160 58 81 -2 95 -5 98 -19z m-1618 -158 c0 -6 -7 -13 -15
-16 -20 -8 -48 3 -40 16 8 13 55 13 55 0z m430 0 c0 -6 -7 -13 -15 -16 -20 -8
-48 3 -40 16 8 13 55 13 55 0z m390 0 c0 -6 -7 -13 -15 -16 -20 -8 -48 3 -40
16 8 13 55 13 55 0z m320 0 c0 -6 -7 -13 -15 -16 -20 -8 -48 3 -40 16 8 13 55
13 55 0z m190 0 c0 -6 -7 -13 -15 -16 -20 -8 -48 3 -40 16 8 13 55 13 55 0z
m370 0 c0 -6 -7 -13 -15 -16 -20 -8 -48 3 -40 16 8 13 55 13 55 0z"/>
<path d="M2022 2305 c-16 -35 -16 -35 18 -35 32 0 38 14 16 43 -17 22 -21 22
-34 -8z"/>
<path d="M2400 2321 c0 -28 1 -28 48 -24 53 6 67 15 59 37 -5 12 -20 16 -57
16 -48 0 -50 -1 -50 -29z"/>
<path d="M2536 1112 c-2 -4 -1 -14 4 -22 7 -11 12 -12 21 -3 6 6 8 16 5 22 -8
13 -23 14 -30 3z"/>
<path d="M1304 2046 c-8 -20 39 -191 76 -279 46 -109 73 -152 98 -155 36 -5
36 22 -4 99 -40 81 -98 243 -109 308 -6 35 -10 41 -31 41 -14 0 -27 -6 -30
-14z"/>
<path d="M3878 1663 c7 -3 16 -2 19 1 4 3 -2 6 -13 5 -11 0 -14 -3 -6 -6z"/>
<path d="M2317 279 c7 -7 15 -10 18 -7 3 3 -2 9 -12 12 -14 6 -15 5 -6 -5z"/>
</g>
</svg>
